<?xml version="1.0" standalone="no"?>
<!DOCTYPE svg PUBLIC "-//W3C//DTD SVG 20010904//EN"
 "http://www.w3.org/TR/2001/REC-SVG-20010904/DTD/svg10.dtd">
<svg version="1.0" xmlns="http://www.w3.org/2000/svg"
 width="1080.000000pt" height="1080.000000pt" viewBox="0 0 1080.000000 1080.000000"
 preserveAspectRatio="xMidYMid meet">
<metadata>
Created by potrace 1.11, written by Peter Selinger 2001-2013
</metadata>
<g transform="translate(0.000000,1080.000000) scale(0.100000,-0.100000)"
fill="#000000" stroke="none">
<path d="M4990 10224 c-338 -53 -702 -176 -985 -331 -158 -87 -190 -109 -204
-139 -17 -37 -14 -60 13 -91 37 -43 83 -37 181 22 278 168 683 312 1010 360
463 68 1314 -87 1870 -340 17 -8 109 -50 205 -93 364 -166 694 -323 960 -458
280 -143 417 -203 481 -211 27 -4 41 0 62 18 38 35 43 68 15 108 -19 28 -43
42 -128 76 -115 46 -144 60 -526 252 -144 73 -344 170 -445 217 -101 46 -254
117 -339 156 -530 245 -897 356 -1440 436 -233 34 -577 42 -730 18z"/>
<path d="M3210 9653 c-358 -35 -738 -205 -1079 -481 -135 -110 -333 -308 -441
-442 l-93 -115 -61 -12 c-72 -14 -337 -16 -416 -2 -30 5 -87 12 -126 15 -69 6
-71 6 -107 -26 -61 -53 -81 -137 -82 -335 0 -191 17 -262 91 -372 l46 -68 -74
-69 c-165 -156 -445 -379 -613 -488 -55 -36 -113 -79 -128 -96 -78 -83 -61
-184 39 -232 60 -29 202 -38 339 -20 53 6 99 9 102 7 3 -3 -16 -77 -41 -164
-61 -210 -70 -275 -63 -463 6 -176 26 -270 82 -389 40 -83 114 -192 147 -216
35 -24 85 -19 113 11 38 41 32 72 -31 164 -89 130 -116 209 -135 392 -12 121
0 243 38 380 14 51 36 131 49 178 30 106 30 154 2 210 -19 36 -32 49 -71 64
-44 19 -55 19 -155 8 -59 -7 -137 -12 -172 -12 l-65 1 80 52 c225 146 645 503
737 627 15 19 29 52 33 72 7 35 4 41 -31 73 -87 78 -100 94 -119 146 -17 45
-20 79 -20 211 0 91 4 161 10 167 7 6 27 6 60 -1 28 -6 147 -12 265 -12 320
-1 352 11 494 187 142 176 356 386 496 486 403 287 688 390 1078 391 l144 0
29 30 c25 24 30 37 27 67 -2 30 -10 42 -37 60 -32 21 -44 23 -170 21 -75 0
-152 -3 -171 -5z"/>
<path d="M9110 8970 c-249 -102 -561 -164 -703 -141 -38 7 -67 6 -87 -1 -32
-10 -60 -52 -60 -87 0 -29 47 -79 77 -83 19 -2 27 -10 30 -28 4 -26 9 -33 174
-205 244 -255 310 -331 390 -450 83 -125 218 -364 230 -409 22 -83 84 -110
142 -63 49 39 47 87 -7 194 -157 314 -296 505 -589 808 l-135 140 37 7 c20 4
88 17 151 29 177 32 508 148 564 197 29 27 39 62 25 94 -11 28 -55 59 -81 57
-7 0 -78 -27 -158 -59z"/>
<path d="M5080 7738 c-69 -22 -246 -78 -395 -125 -888 -279 -1442 -482 -1648
-603 -37 -21 -67 -37 -67 -34 0 7 128 252 181 345 27 48 49 96 49 108 0 34
-52 84 -88 84 -58 0 -97 -52 -232 -317 -241 -473 -447 -978 -525 -1286 l-21
-85 -37 65 c-45 81 -109 242 -142 357 -28 97 -56 133 -104 133 -38 0 -78 -39
-87 -85 -5 -28 -10 -35 -23 -30 -122 47 -345 20 -497 -61 -163 -87 -327 -270
-432 -486 -67 -136 -92 -227 -99 -363 -6 -135 8 -205 71 -341 82 -175 173
-278 322 -366 157 -92 417 -188 511 -188 35 0 49 6 68 26 54 58 15 134 -77
149 -117 20 -380 133 -488 211 -79 57 -170 198 -215 334 -26 76 -24 202 4 303
40 145 150 333 262 446 145 147 340 210 516 167 52 -13 75 -15 97 -7 36 14 34
16 41 -21 4 -22 -6 -80 -29 -170 -113 -438 -126 -840 -41 -1207 60 -253 176
-527 318 -753 l55 -86 -109 -87 c-162 -128 -273 -230 -577 -527 -337 -330
-448 -422 -597 -494 -138 -67 -245 -93 -570 -139 -137 -20 -301 -47 -362 -62
l-113 -27 0 -91 0 -91 110 28 c60 15 133 30 162 34 46 5 51 4 36 -7 -28 -23
-38 -61 -23 -94 14 -33 246 -265 400 -400 450 -395 1011 -707 2020 -1120 77
-32 210 -87 295 -123 477 -199 773 -306 1005 -361 72 -17 200 -47 285 -67 85
-21 183 -39 218 -41 56 -4 71 -1 135 30 124 59 274 168 513 374 151 130 325
263 336 257 4 -3 8 -13 8 -22 0 -29 47 -115 81 -151 56 -58 127 -83 253 -91
l110 -6 25 -34 c48 -64 105 -113 160 -139 46 -21 72 -26 145 -27 84 -2 90 -3
98 -25 9 -22 167 -181 294 -295 l62 -55 127 3 126 3 -173 157 c-95 86 -195
179 -221 206 l-49 49 64 36 c35 20 85 51 111 70 l48 35 71 -25 c84 -29 189
-53 239 -53 52 0 134 27 167 55 51 43 76 108 76 202 0 74 -4 88 -37 156 -55
111 -174 220 -310 287 -108 52 -267 100 -330 100 -29 0 -46 -7 -68 -29 -60
-60 -21 -127 86 -150 168 -35 296 -96 385 -181 86 -83 122 -180 90 -241 -18
-33 -103 -25 -243 21 -87 29 -130 39 -152 34 -16 -4 -73 -35 -125 -70 -120
-80 -188 -105 -305 -111 -107 -5 -133 7 -191 87 -58 80 -106 103 -239 111
-157 9 -172 19 -215 137 -7 17 -16 32 -21 32 -68 0 243 144 431 200 100 30
229 50 318 50 68 0 76 2 103 29 37 38 38 74 1 111 -38 37 -92 45 -218 30 -190
-23 -373 -81 -613 -196 -209 -100 -350 -196 -586 -399 -236 -203 -450 -360
-523 -386 -23 -8 -51 -5 -128 15 -55 14 -162 39 -239 55 -261 56 -471 123
-810 259 -1196 481 -1667 702 -2110 990 -278 180 -381 263 -685 552 -91 86
-174 161 -185 168 -27 15 -17 17 140 37 444 55 629 132 915 380 52 45 215 200
362 343 256 250 387 369 546 495 l73 59 99 -95 c97 -94 223 -181 306 -213 l43
-16 -15 -32 c-18 -37 -7 -77 28 -100 13 -8 111 -38 218 -66 382 -101 596 -166
865 -262 515 -185 1084 -450 1385 -645 97 -63 512 -373 551 -412 14 -14 64
-53 110 -85 46 -33 116 -83 154 -111 39 -28 135 -95 215 -147 80 -53 180 -126
224 -162 43 -36 89 -69 102 -72 28 -7 66 14 89 50 14 21 14 27 0 64 -9 22 -34
54 -56 71 -43 35 -48 46 -21 54 9 3 79 31 156 62 l138 57 42 -16 c71 -27 186
-114 541 -407 129 -106 323 -292 476 -454 262 -279 247 -265 281 -265 32 -1
32 -1 -27 -37 -33 -20 -143 -93 -245 -162 -102 -69 -247 -167 -323 -218 l-139
-93 155 0 154 0 285 190 c302 201 320 217 299 272 -12 32 -48 58 -78 58 l-22
0 20 34 c16 27 17 39 9 61 -14 37 -230 272 -432 471 -189 185 -267 255 -433
384 -66 52 -151 121 -190 153 -189 159 -330 223 -427 193 -50 -15 -178 -68
-326 -133 l-102 -45 -96 63 c-107 70 -106 71 6 83 605 63 1084 139 1514 237
354 82 509 143 682 272 175 131 312 301 433 536 115 225 143 387 89 517 -80
192 -369 501 -584 624 l-40 23 32 76 c80 186 126 456 107 630 l-9 83 70 -6
c120 -11 218 -36 341 -88 66 -28 130 -51 142 -52 12 0 19 -3 17 -5 -4 -4 396
-221 407 -221 4 0 12 -7 19 -15 7 -9 15 -13 18 -10 3 3 15 -3 26 -13 12 -11
37 -28 56 -38 19 -10 37 -22 40 -25 3 -3 61 -41 130 -84 69 -43 216 -138 328
-212 111 -73 207 -133 212 -133 4 0 10 -4 12 -9 3 -9 202 -131 214 -131 3 0
22 -11 42 -25 20 -14 40 -25 44 -25 5 0 8 44 8 98 l-1 97 -87 51 c-48 28 -186
116 -307 196 -482 317 -760 485 -1001 606 -162 82 -414 182 -456 182 -10 0
-18 3 -18 6 0 3 36 45 81 92 130 139 253 343 294 487 10 33 20 63 24 68 4 4
34 -36 66 -88 89 -144 140 -204 191 -227 49 -21 76 -18 112 16 40 35 50 68 72
217 45 303 45 471 0 684 -60 290 -160 547 -330 848 -72 126 -91 143 -148 128
-30 -9 -43 -19 -53 -43 -19 -47 -14 -72 36 -153 60 -99 177 -340 214 -442 41
-113 86 -268 112 -393 18 -85 22 -135 21 -265 -1 -164 -19 -326 -37 -325 -5 0
-37 44 -70 98 -33 54 -78 127 -100 161 -62 96 -123 124 -179 80 -38 -30 -44
-46 -71 -185 -42 -219 -133 -388 -300 -558 -144 -147 -168 -166 -210 -166 -32
0 -38 5 -65 53 -16 28 -55 77 -87 108 -85 82 -86 82 -72 112 23 51 -25 117
-84 117 -37 0 -63 -14 -209 -114 -131 -89 -223 -140 -275 -151 -40 -8 -46 2
-73 122 -38 163 -82 255 -152 318 -87 79 -187 96 -288 49 -30 -14 -113 -69
-185 -123 -144 -108 -173 -127 -185 -114 -4 4 -23 60 -43 123 -57 185 -204
600 -238 668 -50 102 -130 139 -206 92 -18 -10 -56 -49 -85 -86 -101 -127
-213 -250 -383 -420 -172 -172 -339 -324 -357 -324 -6 0 -8 14 -4 33 23 128
29 280 30 827 1 622 -5 763 -43 948 -25 117 -47 162 -90 184 -29 15 -38 15
-60 3 -56 -28 -60 -66 -28 -211 37 -162 42 -283 41 -919 -1 -515 -4 -641 -17
-747 -28 -214 -22 -269 39 -317 53 -42 140 -18 259 71 159 118 648 614 738
747 l16 24 19 -44 c23 -54 215 -623 236 -699 30 -105 77 -150 158 -150 49 0
162 58 263 136 158 120 196 144 230 144 62 0 118 -74 145 -190 36 -158 60
-221 105 -265 49 -49 83 -60 175 -53 70 5 192 62 305 143 70 51 111 73 100 56
-3 -5 3 -16 12 -23 27 -20 113 -119 138 -159 13 -20 29 -55 36 -77 7 -23 15
-42 18 -42 3 0 7 -10 8 -22 24 -275 7 -423 -72 -627 -39 -101 -30 -97 -130
-61 -122 42 -258 80 -292 80 -43 0 -64 -21 -108 -106 -31 -61 -64 -102 -150
-189 -275 -278 -598 -416 -1145 -490 -91 -12 -420 -45 -452 -45 -3 0 -20 -12
-37 -26 -40 -33 -43 -83 -6 -119 30 -31 72 -32 296 -10 589 59 960 173 1264
390 135 97 349 319 370 385 8 26 13 26 130 -11 171 -53 322 -127 436 -213 160
-121 366 -359 404 -467 30 -84 11 -177 -70 -344 -136 -279 -305 -469 -526
-588 -241 -132 -921 -268 -1874 -377 -148 -17 -298 -35 -332 -41 l-63 -9 -194
147 -195 148 24 25 c16 17 25 38 25 59 0 42 -27 69 -275 277 -509 426 -858
622 -1340 753 -82 22 -203 50 -268 61 -126 21 -508 44 -564 34 -34 -6 -83 -53
-83 -80 0 -17 -3 -17 -60 0 -44 13 -45 14 -42 53 5 61 -17 80 -157 128 -67 24
-159 65 -204 92 -322 192 -637 761 -713 1289 -20 138 -22 410 -5 549 16 124
53 325 61 325 3 0 25 -27 49 -61 74 -105 165 -144 237 -100 39 24 60 68 74
156 12 77 21 116 52 218 19 63 22 67 49 67 21 0 45 14 85 51 68 61 131 103
251 163 270 137 478 183 768 173 256 -9 397 -40 584 -128 46 -21 92 -39 102
-39 9 0 31 12 48 26 36 30 41 76 13 110 -42 53 -253 140 -417 173 -227 45
-462 50 -675 15 -178 -30 -446 -133 -622 -240 -32 -20 -61 -34 -63 -32 -2 2
39 102 91 223 126 290 133 305 138 305 2 0 18 -13 34 -30 36 -36 74 -39 117
-9 195 133 846 369 1995 724 259 80 297 106 266 179 -28 68 -69 71 -246 14z
m-1249 -4514 c321 -44 712 -181 987 -346 151 -90 468 -317 488 -349 3 -6 -45
17 -108 51 -402 218 -1018 476 -1464 615 -81 25 -150 47 -151 49 -7 7 144 -5
248 -20z"/>
<path d="M4088 6944 c-81 -44 -52 -146 45 -158 187 -24 587 -58 610 -52 15 3
36 20 47 38 16 27 17 35 6 61 -24 61 -38 65 -341 97 -321 34 -330 34 -367 14z"/>
<path d="M3560 6334 c-53 -11 -188 -57 -259 -90 -143 -66 -260 -157 -385 -303
-146 -168 -207 -284 -229 -432 -14 -100 7 -223 63 -356 47 -113 84 -169 199
-303 110 -129 189 -193 317 -258 147 -74 308 -106 524 -105 225 1 428 39 544
101 76 41 221 222 295 369 35 70 72 213 78 303 13 202 -73 548 -179 711 -88
137 -281 293 -377 306 -35 5 -44 2 -71 -25 -31 -32 -38 -68 -20 -103 6 -11 41
-34 78 -51 50 -23 89 -53 153 -117 100 -101 141 -176 188 -346 84 -307 65
-498 -70 -705 -74 -113 -140 -184 -188 -204 -103 -41 -240 -60 -431 -60 -244
0 -354 25 -508 115 -117 70 -299 278 -360 414 -117 263 -72 432 187 695 118
120 205 177 350 231 74 28 99 32 181 32 52 0 118 -3 146 -7 48 -8 51 -7 77 24
72 85 -14 160 -188 166 -49 1 -101 0 -115 -2z"/>
<path d="M6208 5032 c-40 -37 -43 -82 -6 -119 23 -22 37 -26 144 -34 336 -26
709 -94 929 -169 101 -34 134 -33 165 7 33 43 23 100 -23 124 -137 74 -609
172 -1002 209 -161 15 -170 14 -207 -18z"/>
<path d="M738 4873 c-46 -31 -101 -69 -123 -84 -60 -40 -229 -123 -325 -158
-92 -33 -254 -81 -276 -81 -11 0 -14 -20 -14 -91 l0 -92 40 7 c51 8 257 70
340 103 131 51 258 119 401 215 176 117 195 145 143 207 -42 50 -84 44 -186
-26z"/>
<path d="M5678 4445 c-92 -24 -193 -67 -254 -109 -34 -23 -40 -24 -63 -11 -83
46 -304 71 -373 42 -47 -20 -72 -57 -63 -96 12 -54 36 -66 149 -69 129 -4 133
-5 112 -37 -45 -69 25 -152 101 -120 17 7 78 44 135 83 138 93 194 119 307
148 52 13 105 31 118 39 47 31 42 104 -10 135 -39 24 -50 24 -159 -5z"/>
<path d="M8897 2450 c-35 -28 -44 -73 -20 -110 66 -104 307 -328 548 -509 485
-365 951 -594 1338 -656 l37 -6 0 90 0 89 -65 11 c-444 78 -1179 517 -1610
962 -153 159 -174 171 -228 129z"/>
</g>
</svg>
